<svg xmlns="http://www.w3.org/2000/svg" xmlns:xlink="http://www.w3.org/1999/xlink" width="500" zoomAndPan="magnify" viewBox="0 0 375 374.999991" height="500" preserveAspectRatio="xMidYMid meet" version="1.0"><defs><clipPath id="6586220f9c"><path d="M 1.117188 23.953125 L 323.882812 23.953125 L 323.882812 346.722656 L 1.117188 346.722656 Z M 1.117188 23.953125 " clip-rule="nonzero"/></clipPath><clipPath id="36fce43b86"><path d="M 0.921875 0.238281 L 323.960938 0.238281 L 323.960938 356.878906 L 0.921875 356.878906 Z M 0.921875 0.238281 " clip-rule="nonzero"/></clipPath><clipPath id="c0cb4b2a5f"><path d="M 148.734375 171.574219 L 176.265625 171.574219 L 176.265625 199.101562 L 148.734375 199.101562 Z M 148.734375 171.574219 " clip-rule="nonzero"/></clipPath><clipPath id="f9c34fc5b6"><path d="M 162.5 171.574219 C 154.898438 171.574219 148.734375 177.738281 148.734375 185.339844 C 148.734375 192.941406 154.898438 199.101562 162.5 199.101562 C 170.101562 199.101562 176.265625 192.941406 176.265625 185.339844 C 176.265625 177.738281 170.101562 171.574219 162.5 171.574219 Z M 162.5 171.574219 " clip-rule="nonzero"/></clipPath><clipPath id="c58d49f9e6"><path d="M 0.734375 0.574219 L 28.265625 0.574219 L 28.265625 28.101562 L 0.734375 28.101562 Z M 0.734375 0.574219 " clip-rule="nonzero"/></clipPath><clipPath id="f6496dd363"><path d="M 14.5 0.574219 C 6.898438 0.574219 0.734375 6.738281 0.734375 14.339844 C 0.734375 21.941406 6.898438 28.101562 14.5 28.101562 C 22.101562 28.101562 28.265625 21.941406 28.265625 14.339844 C 28.265625 6.738281 22.101562 0.574219 14.5 0.574219 Z M 14.5 0.574219 " clip-rule="nonzero"/></clipPath><clipPath id="92a43b319c"><rect x="0" width="29" y="0" height="29"/></clipPath><clipPath id="d10f2993d2"><rect x="0" width="324" y="0" height="357"/></clipPath></defs><g transform="matrix(1, 0, 0, 1, 25, 6)"><g clip-path="url(#d10f2993d2)"><path fill="#0074e5" d="M 162.5 137.527344 C 160.933594 137.527344 159.371094 137.605469 157.8125 137.757812 C 156.253906 137.910156 154.707031 138.140625 153.171875 138.445312 C 151.636719 138.753906 150.121094 139.132812 148.621094 139.585938 C 147.121094 140.042969 145.652344 140.566406 144.203125 141.167969 C 142.757812 141.765625 141.34375 142.433594 139.960938 143.171875 C 138.582031 143.910156 137.238281 144.714844 135.9375 145.585938 C 134.636719 146.457031 133.378906 147.386719 132.167969 148.378906 C 130.960938 149.375 129.800781 150.425781 128.691406 151.53125 C 127.585938 152.636719 126.535156 153.796875 125.542969 155.007812 C 124.550781 156.21875 123.617188 157.472656 122.746094 158.777344 C 121.878906 160.078125 121.074219 161.417969 120.335938 162.800781 C 119.597656 164.179688 118.929688 165.59375 118.328125 167.042969 C 117.730469 168.488281 117.203125 169.960938 116.75 171.460938 C 116.292969 172.957031 115.914062 174.476562 115.609375 176.011719 C 115.304688 177.546875 115.074219 179.09375 114.921875 180.652344 C 114.765625 182.210938 114.691406 183.773438 114.691406 185.339844 C 114.691406 186.902344 114.765625 188.464844 114.921875 190.023438 C 115.074219 191.582031 115.304688 193.128906 115.609375 194.664062 C 115.914062 196.203125 116.292969 197.71875 116.75 199.214844 C 117.203125 200.714844 117.730469 202.1875 118.328125 203.632812 C 118.929688 205.082031 119.597656 206.496094 120.335938 207.875 C 121.074219 209.257812 121.878906 210.597656 122.746094 211.898438 C 123.617188 213.203125 124.550781 214.457031 125.542969 215.667969 C 126.535156 216.878906 127.585938 218.039062 128.691406 219.144531 C 129.800781 220.253906 130.960938 221.300781 132.167969 222.296875 C 133.378906 223.289062 134.636719 224.222656 135.9375 225.089844 C 137.238281 225.960938 138.582031 226.765625 139.960938 227.503906 C 141.34375 228.242188 142.757812 228.910156 144.203125 229.507812 C 145.652344 230.109375 147.121094 230.636719 148.621094 231.089844 C 150.121094 231.542969 151.636719 231.925781 153.171875 232.230469 C 154.707031 232.535156 156.253906 232.765625 157.8125 232.917969 C 159.371094 233.070312 160.933594 233.148438 162.5 233.148438 C 164.066406 233.148438 165.628906 233.070312 167.1875 232.917969 C 168.746094 232.765625 170.292969 232.535156 171.828125 232.230469 C 173.363281 231.925781 174.878906 231.542969 176.378906 231.089844 C 177.875 230.636719 179.347656 230.109375 180.796875 229.507812 C 182.242188 228.910156 183.65625 228.242188 185.039062 227.503906 C 186.417969 226.765625 187.761719 225.960938 189.0625 225.089844 C 190.363281 224.222656 191.621094 223.289062 192.832031 222.296875 C 194.039062 221.300781 195.199219 220.253906 196.308594 219.144531 C 197.414062 218.039062 198.464844 216.878906 199.457031 215.667969 C 200.449219 214.457031 201.382812 213.203125 202.253906 211.898438 C 203.121094 210.597656 203.925781 209.257812 204.664062 207.875 C 205.402344 206.496094 206.070312 205.082031 206.671875 203.632812 C 207.269531 202.1875 207.796875 200.714844 208.25 199.214844 C 208.707031 197.71875 209.085938 196.203125 209.390625 194.664062 C 209.695312 193.128906 209.925781 191.582031 210.078125 190.023438 C 210.234375 188.464844 210.308594 186.902344 210.308594 185.339844 C 210.308594 183.773438 210.230469 182.210938 210.074219 180.652344 C 209.921875 179.097656 209.691406 177.550781 209.382812 176.015625 C 209.078125 174.480469 208.695312 172.964844 208.238281 171.464844 C 207.785156 169.96875 207.257812 168.496094 206.65625 167.050781 C 206.058594 165.605469 205.386719 164.191406 204.648438 162.8125 C 203.910156 161.429688 203.105469 160.089844 202.238281 158.789062 C 201.367188 157.488281 200.433594 156.230469 199.441406 155.019531 C 198.449219 153.8125 197.398438 152.652344 196.292969 151.546875 C 195.183594 150.4375 194.027344 149.390625 192.816406 148.394531 C 191.605469 147.402344 190.351562 146.472656 189.050781 145.601562 C 187.75 144.730469 186.40625 143.925781 185.027344 143.1875 C 183.648438 142.449219 182.234375 141.78125 180.789062 141.179688 C 179.34375 140.582031 177.871094 140.054688 176.371094 139.597656 C 174.875 139.144531 173.359375 138.761719 171.824219 138.453125 C 170.289062 138.148438 168.742188 137.917969 167.183594 137.761719 C 165.625 137.609375 164.066406 137.53125 162.5 137.527344 Z M 162.5 213.175781 C 161.585938 213.175781 160.671875 213.132812 159.757812 213.042969 C 158.847656 212.953125 157.941406 212.816406 157.046875 212.640625 C 156.148438 212.460938 155.261719 212.238281 154.382812 211.972656 C 153.507812 211.707031 152.644531 211.398438 151.800781 211.046875 C 150.953125 210.695312 150.128906 210.304688 149.320312 209.871094 C 148.511719 209.441406 147.726562 208.96875 146.96875 208.460938 C 146.207031 207.953125 145.472656 207.40625 144.765625 206.824219 C 144.054688 206.246094 143.378906 205.628906 142.730469 204.980469 C 142.085938 204.332031 141.472656 203.65625 140.890625 202.949219 C 140.308594 202.238281 139.765625 201.503906 139.257812 200.742188 C 138.75 199.980469 138.28125 199.195312 137.847656 198.386719 C 137.417969 197.578125 137.027344 196.753906 136.675781 195.90625 C 136.328125 195.058594 136.019531 194.199219 135.753906 193.320312 C 135.492188 192.445312 135.269531 191.558594 135.089844 190.660156 C 134.914062 189.761719 134.78125 188.855469 134.691406 187.945312 C 134.601562 187.03125 134.558594 186.121094 134.558594 185.203125 C 134.5625 184.289062 134.609375 183.375 134.699219 182.464844 C 134.789062 181.550781 134.925781 180.648438 135.105469 179.75 C 135.285156 178.851562 135.507812 177.964844 135.773438 177.089844 C 136.042969 176.210938 136.351562 175.351562 136.703125 174.507812 C 137.054688 173.660156 137.449219 172.835938 137.878906 172.027344 C 138.3125 171.21875 138.785156 170.4375 139.296875 169.675781 C 139.804688 168.914062 140.351562 168.183594 140.933594 167.476562 C 141.515625 166.769531 142.132812 166.089844 142.78125 165.445312 C 143.429688 164.800781 144.105469 164.1875 144.816406 163.605469 C 145.523438 163.027344 146.261719 162.484375 147.023438 161.976562 C 147.785156 161.46875 148.570312 161 149.378906 160.570312 C 150.1875 160.140625 151.015625 159.75 151.863281 159.402344 C 152.710938 159.054688 153.570312 158.746094 154.449219 158.484375 C 155.324219 158.21875 156.210938 158 157.109375 157.820312 C 158.011719 157.644531 158.914062 157.511719 159.828125 157.425781 C 160.738281 157.339844 161.652344 157.296875 162.566406 157.296875 C 163.484375 157.300781 164.398438 157.347656 165.308594 157.4375 C 166.21875 157.53125 167.125 157.667969 168.019531 157.847656 C 168.917969 158.03125 169.804688 158.253906 170.679688 158.523438 C 171.554688 158.789062 172.417969 159.101562 173.261719 159.453125 C 174.105469 159.804688 174.933594 160.199219 175.738281 160.632812 C 176.546875 161.066406 177.328125 161.539062 178.089844 162.050781 C 178.847656 162.5625 179.582031 163.109375 180.289062 163.691406 C 180.996094 164.273438 181.671875 164.890625 182.316406 165.539062 C 182.960938 166.191406 183.574219 166.871094 184.152344 167.578125 C 184.730469 168.289062 185.273438 169.023438 185.78125 169.789062 C 186.285156 170.550781 186.753906 171.335938 187.183594 172.144531 C 187.613281 172.957031 188 173.785156 188.347656 174.628906 C 188.695312 175.476562 189 176.339844 189.265625 177.21875 C 189.527344 178.09375 189.746094 178.984375 189.921875 179.882812 C 190.097656 180.78125 190.226562 181.683594 190.316406 182.597656 C 190.402344 183.507812 190.441406 184.421875 190.441406 185.339844 C 190.4375 186.253906 190.390625 187.164062 190.300781 188.074219 C 190.210938 188.984375 190.074219 189.886719 189.894531 190.785156 C 189.714844 191.683594 189.492188 192.566406 189.226562 193.441406 C 188.957031 194.316406 188.648438 195.175781 188.300781 196.023438 C 187.949219 196.867188 187.558594 197.691406 187.125 198.5 C 186.695312 199.304688 186.222656 200.089844 185.714844 200.847656 C 185.207031 201.609375 184.664062 202.34375 184.082031 203.050781 C 183.5 203.757812 182.886719 204.433594 182.242188 205.078125 C 181.59375 205.726562 180.917969 206.339844 180.210938 206.921875 C 179.503906 207.5 178.769531 208.046875 178.011719 208.554688 C 177.25 209.0625 176.46875 209.53125 175.660156 209.964844 C 174.855469 210.394531 174.027344 210.785156 173.183594 211.136719 C 172.339844 211.488281 171.480469 211.796875 170.605469 212.0625 C 169.730469 212.328125 168.84375 212.554688 167.945312 212.734375 C 167.050781 212.914062 166.148438 213.046875 165.238281 213.140625 C 164.328125 213.230469 163.414062 213.277344 162.5 213.277344 Z M 162.5 213.175781 " fill-opacity="1" fill-rule="nonzero"/><path fill="#0074e5" d="M 162.5 76.65625 C 160.722656 76.65625 158.945312 76.699219 157.167969 76.785156 C 155.390625 76.875 153.617188 77.003906 151.847656 77.179688 C 150.078125 77.355469 148.3125 77.570312 146.554688 77.832031 C 144.792969 78.09375 143.042969 78.398438 141.296875 78.746094 C 139.550781 79.089844 137.816406 79.480469 136.09375 79.914062 C 134.367188 80.34375 132.652344 80.820312 130.949219 81.335938 C 129.25 81.851562 127.5625 82.410156 125.886719 83.007812 C 124.210938 83.609375 122.550781 84.25 120.910156 84.929688 C 119.265625 85.609375 117.640625 86.328125 116.03125 87.089844 C 114.425781 87.851562 112.835938 88.652344 111.265625 89.488281 C 109.699219 90.328125 108.152344 91.203125 106.625 92.117188 C 105.101562 93.03125 103.597656 93.984375 102.121094 94.972656 C 100.640625 95.960938 99.1875 96.984375 97.757812 98.042969 C 96.328125 99.101562 94.925781 100.195312 93.550781 101.324219 C 92.179688 102.453125 90.832031 103.617188 89.511719 104.808594 C 88.195312 106.003906 86.90625 107.230469 85.648438 108.488281 C 84.390625 109.746094 83.167969 111.035156 81.972656 112.351562 C 80.777344 113.667969 79.617188 115.015625 78.488281 116.390625 C 77.359375 117.765625 76.265625 119.167969 75.207031 120.597656 C 74.144531 122.023438 73.121094 123.480469 72.132812 124.957031 C 71.144531 126.4375 70.195312 127.9375 69.28125 129.464844 C 68.367188 130.988281 67.488281 132.535156 66.652344 134.105469 C 65.8125 135.675781 65.011719 137.261719 64.253906 138.871094 C 63.492188 140.476562 62.769531 142.105469 62.089844 143.746094 C 61.410156 145.390625 60.769531 147.050781 60.171875 148.722656 C 59.570312 150.398438 59.015625 152.085938 58.496094 153.789062 C 57.980469 155.492188 57.507812 157.207031 57.074219 158.929688 C 56.644531 160.65625 56.253906 162.390625 55.90625 164.136719 C 55.558594 165.878906 55.253906 167.632812 54.992188 169.390625 C 54.734375 171.152344 54.515625 172.914062 54.339844 174.683594 C 54.167969 176.457031 54.035156 178.230469 53.949219 180.003906 C 53.863281 181.78125 53.816406 183.558594 53.816406 185.339844 C 53.816406 187.117188 53.863281 188.894531 53.949219 190.671875 C 54.035156 192.449219 54.167969 194.222656 54.339844 195.992188 C 54.515625 197.761719 54.734375 199.527344 54.992188 201.285156 C 55.253906 203.042969 55.558594 204.796875 55.90625 206.542969 C 56.253906 208.285156 56.644531 210.019531 57.074219 211.746094 C 57.507812 213.472656 57.980469 215.183594 58.496094 216.886719 C 59.015625 218.589844 59.570312 220.277344 60.171875 221.953125 C 60.769531 223.625 61.410156 225.285156 62.089844 226.929688 C 62.769531 228.574219 63.492188 230.199219 64.253906 231.804688 C 65.011719 233.414062 65.8125 235.003906 66.652344 236.570312 C 67.488281 238.140625 68.367188 239.6875 69.28125 241.210938 C 70.195312 242.738281 71.144531 244.238281 72.132812 245.71875 C 73.121094 247.199219 74.144531 248.652344 75.207031 250.082031 C 76.265625 251.507812 77.359375 252.910156 78.488281 254.285156 C 79.617188 255.660156 80.777344 257.007812 81.972656 258.324219 C 83.167969 259.644531 84.390625 260.929688 85.648438 262.1875 C 86.90625 263.445312 88.195312 264.671875 89.511719 265.867188 C 90.832031 267.0625 92.179688 268.222656 93.550781 269.351562 C 94.925781 270.480469 96.328125 271.574219 97.757812 272.632812 C 99.1875 273.691406 100.640625 274.714844 102.121094 275.703125 C 103.597656 276.691406 105.101562 277.644531 106.625 278.558594 C 108.152344 279.472656 109.699219 280.347656 111.265625 281.1875 C 112.835938 282.027344 114.425781 282.824219 116.03125 283.585938 C 117.640625 284.347656 119.265625 285.066406 120.910156 285.746094 C 122.550781 286.429688 124.210938 287.066406 125.886719 287.667969 C 127.5625 288.265625 129.25 288.824219 130.953125 289.339844 C 132.652344 289.855469 134.367188 290.332031 136.09375 290.761719 C 137.816406 291.195312 139.550781 291.585938 141.296875 291.933594 C 143.042969 292.277344 144.792969 292.582031 146.554688 292.84375 C 148.3125 293.105469 150.078125 293.324219 151.847656 293.496094 C 153.617188 293.671875 155.390625 293.800781 157.167969 293.890625 C 158.945312 293.976562 160.722656 294.019531 162.5 294.019531 C 164.277344 294.019531 166.054688 293.976562 167.832031 293.890625 C 169.609375 293.800781 171.382812 293.671875 173.152344 293.496094 C 174.921875 293.324219 176.6875 293.105469 178.445312 292.84375 C 180.207031 292.582031 181.957031 292.277344 183.703125 291.933594 C 185.449219 291.585938 187.183594 291.195312 188.90625 290.761719 C 190.632812 290.332031 192.347656 289.855469 194.046875 289.339844 C 195.75 288.824219 197.4375 288.265625 199.113281 287.667969 C 200.789062 287.066406 202.449219 286.429688 204.089844 285.746094 C 205.734375 285.066406 207.359375 284.347656 208.96875 283.585938 C 210.574219 282.824219 212.164062 282.027344 213.734375 281.1875 C 215.300781 280.347656 216.847656 279.472656 218.375 278.558594 C 219.898438 277.644531 221.402344 276.691406 222.878906 275.703125 C 224.359375 274.714844 225.8125 273.691406 227.242188 272.632812 C 228.671875 271.574219 230.074219 270.480469 231.449219 269.351562 C 232.820312 268.222656 234.167969 267.0625 235.488281 265.867188 C 236.804688 264.671875 238.09375 263.445312 239.351562 262.1875 C 240.609375 260.929688 241.832031 259.644531 243.027344 258.324219 C 244.222656 257.007812 245.382812 255.660156 246.511719 254.285156 C 247.640625 252.910156 248.734375 251.507812 249.792969 250.082031 C 250.855469 248.652344 251.878906 247.199219 252.867188 245.71875 C 253.855469 244.238281 254.804688 242.738281 255.71875 241.210938 C 256.632812 239.6875 257.511719 238.140625 258.347656 236.570312 C 259.1875 235.003906 259.988281 233.414062 260.746094 231.804688 C 261.507812 230.199219 262.230469 228.574219 262.910156 226.929688 C 263.589844 225.285156 264.230469 223.625 264.828125 221.953125 C 265.429688 220.277344 265.984375 218.589844 266.503906 216.886719 C 267.019531 215.183594 267.492188 213.472656 267.925781 211.746094 C 268.355469 210.019531 268.746094 208.285156 269.09375 206.542969 C 269.441406 204.796875 269.746094 203.042969 270.007812 201.285156 C 270.265625 199.527344 270.484375 197.761719 270.660156 195.992188 C 270.832031 194.222656 270.964844 192.449219 271.050781 190.671875 C 271.136719 188.894531 271.183594 187.117188 271.183594 185.339844 C 271.179688 183.558594 271.132812 181.785156 271.042969 180.007812 C 270.953125 178.230469 270.820312 176.460938 270.644531 174.691406 C 270.46875 172.921875 270.25 171.15625 269.984375 169.398438 C 269.722656 167.640625 269.417969 165.890625 269.070312 164.144531 C 268.71875 162.402344 268.328125 160.667969 267.894531 158.945312 C 267.460938 157.21875 266.984375 155.507812 266.46875 153.804688 C 265.949219 152.105469 265.390625 150.417969 264.792969 148.746094 C 264.191406 147.070312 263.550781 145.414062 262.867188 143.769531 C 262.1875 142.128906 261.464844 140.503906 260.703125 138.898438 C 259.945312 137.289062 259.144531 135.703125 258.304688 134.136719 C 257.464844 132.566406 256.589844 131.023438 255.675781 129.496094 C 254.757812 127.972656 253.808594 126.472656 252.820312 124.992188 C 251.832031 123.515625 250.808594 122.0625 249.746094 120.632812 C 248.6875 119.207031 247.59375 117.804688 246.464844 116.429688 C 245.339844 115.058594 244.175781 113.710938 242.984375 112.394531 C 241.789062 111.078125 240.5625 109.789062 239.304688 108.53125 C 238.046875 107.273438 236.761719 106.050781 235.445312 104.855469 C 234.125 103.660156 232.78125 102.5 231.40625 101.371094 C 230.03125 100.242188 228.632812 99.148438 227.203125 98.089844 C 225.777344 97.03125 224.324219 96.007812 222.84375 95.019531 C 221.367188 94.03125 219.867188 93.078125 218.339844 92.164062 C 216.816406 91.25 215.269531 90.371094 213.703125 89.535156 C 212.136719 88.695312 210.546875 87.894531 208.941406 87.132812 C 207.335938 86.371094 205.710938 85.652344 204.066406 84.96875 C 202.425781 84.289062 200.765625 83.648438 199.09375 83.046875 C 197.421875 82.445312 195.734375 81.886719 194.03125 81.371094 C 192.332031 80.851562 190.617188 80.375 188.894531 79.941406 C 187.167969 79.507812 185.4375 79.117188 183.691406 78.769531 C 181.949219 78.421875 180.199219 78.113281 178.441406 77.851562 C 176.679688 77.589844 174.917969 77.371094 173.148438 77.191406 C 171.378906 77.015625 169.605469 76.882812 167.832031 76.792969 C 166.054688 76.703125 164.277344 76.660156 162.5 76.65625 Z M 162.5 274.148438 C 161.046875 274.148438 159.59375 274.113281 158.140625 274.042969 C 156.691406 273.972656 155.242188 273.863281 153.792969 273.722656 C 152.347656 273.578125 150.90625 273.402344 149.46875 273.1875 C 148.03125 272.976562 146.597656 272.726562 145.171875 272.445312 C 143.75 272.160156 142.332031 271.839844 140.921875 271.488281 C 139.511719 271.136719 138.109375 270.746094 136.71875 270.324219 C 135.328125 269.902344 133.949219 269.449219 132.582031 268.957031 C 131.210938 268.46875 129.855469 267.945312 128.511719 267.390625 C 127.171875 266.832031 125.84375 266.246094 124.527344 265.625 C 123.214844 265 121.917969 264.347656 120.632812 263.664062 C 119.351562 262.976562 118.089844 262.261719 116.839844 261.515625 C 115.59375 260.765625 114.367188 259.988281 113.160156 259.183594 C 111.949219 258.375 110.761719 257.539062 109.59375 256.671875 C 108.425781 255.808594 107.28125 254.914062 106.160156 253.992188 C 105.035156 253.070312 103.933594 252.121094 102.859375 251.144531 C 101.78125 250.167969 100.726562 249.164062 99.699219 248.136719 C 98.671875 247.109375 97.671875 246.058594 96.695312 244.980469 C 95.71875 243.902344 94.769531 242.804688 93.847656 241.679688 C 92.925781 240.554688 92.03125 239.410156 91.164062 238.242188 C 90.300781 237.074219 89.464844 235.886719 88.65625 234.679688 C 87.847656 233.472656 87.070312 232.242188 86.324219 230.996094 C 85.578125 229.75 84.859375 228.484375 84.175781 227.203125 C 83.488281 225.921875 82.835938 224.625 82.214844 223.308594 C 81.59375 221.996094 81.003906 220.667969 80.449219 219.324219 C 79.890625 217.980469 79.371094 216.625 78.878906 215.257812 C 78.390625 213.890625 77.933594 212.507812 77.511719 211.117188 C 77.089844 209.726562 76.703125 208.328125 76.351562 206.917969 C 75.996094 205.507812 75.679688 204.089844 75.394531 202.664062 C 75.109375 201.238281 74.863281 199.808594 74.648438 198.371094 C 74.4375 196.933594 74.257812 195.488281 74.117188 194.042969 C 73.972656 192.597656 73.867188 191.148438 73.796875 189.695312 C 73.722656 188.246094 73.6875 186.792969 73.6875 185.339844 C 73.6875 183.882812 73.722656 182.433594 73.796875 180.980469 C 73.867188 179.527344 73.972656 178.078125 74.117188 176.632812 C 74.257812 175.1875 74.4375 173.746094 74.648438 172.308594 C 74.863281 170.867188 75.109375 169.4375 75.394531 168.011719 C 75.679688 166.585938 75.996094 165.167969 76.351562 163.757812 C 76.703125 162.347656 77.089844 160.949219 77.511719 159.558594 C 77.933594 158.167969 78.390625 156.785156 78.878906 155.417969 C 79.371094 154.050781 79.890625 152.695312 80.449219 151.351562 C 81.003906 150.007812 81.59375 148.679688 82.214844 147.367188 C 82.835938 146.050781 83.488281 144.753906 84.175781 143.472656 C 84.859375 142.191406 85.578125 140.925781 86.324219 139.679688 C 87.070312 138.433594 87.847656 137.207031 88.65625 135.996094 C 89.464844 134.789062 90.300781 133.601562 91.164062 132.433594 C 92.03125 131.265625 92.925781 130.121094 93.847656 128.996094 C 94.769531 127.871094 95.71875 126.773438 96.695312 125.695312 C 97.671875 124.617188 98.671875 123.566406 99.699219 122.539062 C 100.726562 121.511719 101.78125 120.507812 102.859375 119.53125 C 103.933594 118.558594 105.035156 117.609375 106.160156 116.6875 C 107.28125 115.761719 108.425781 114.871094 109.59375 114.003906 C 110.761719 113.136719 111.949219 112.300781 113.160156 111.492188 C 114.367188 110.6875 115.59375 109.910156 116.839844 109.160156 C 118.089844 108.414062 119.351562 107.699219 120.632812 107.011719 C 121.917969 106.328125 123.214844 105.675781 124.527344 105.054688 C 125.84375 104.433594 127.171875 103.84375 128.511719 103.285156 C 129.855469 102.730469 131.210938 102.207031 132.582031 101.71875 C 133.949219 101.226562 135.328125 100.773438 136.71875 100.351562 C 138.109375 99.929688 139.511719 99.542969 140.921875 99.1875 C 142.332031 98.835938 143.75 98.515625 145.171875 98.234375 C 146.597656 97.949219 148.03125 97.699219 149.46875 97.488281 C 150.90625 97.273438 152.347656 97.097656 153.792969 96.953125 C 155.242188 96.8125 156.691406 96.703125 158.140625 96.632812 C 159.59375 96.5625 161.046875 96.527344 162.5 96.527344 C 163.953125 96.527344 165.40625 96.5625 166.859375 96.632812 C 168.308594 96.703125 169.757812 96.8125 171.203125 96.953125 C 172.652344 97.097656 174.09375 97.273438 175.53125 97.488281 C 176.96875 97.699219 178.402344 97.949219 179.828125 98.234375 C 181.25 98.515625 182.667969 98.835938 184.078125 99.1875 C 185.488281 99.542969 186.890625 99.929688 188.28125 100.351562 C 189.671875 100.773438 191.050781 101.226562 192.417969 101.71875 C 193.789062 102.207031 195.144531 102.730469 196.488281 103.285156 C 197.828125 103.84375 199.15625 104.433594 200.472656 105.054688 C 201.785156 105.675781 203.082031 106.328125 204.367188 107.011719 C 205.648438 107.699219 206.910156 108.414062 208.160156 109.160156 C 209.40625 109.910156 210.632812 110.6875 211.839844 111.492188 C 213.050781 112.300781 214.238281 113.136719 215.40625 114.003906 C 216.574219 114.871094 217.71875 115.761719 218.839844 116.6875 C 219.964844 117.609375 221.066406 118.558594 222.140625 119.53125 C 223.21875 120.507812 224.273438 121.511719 225.300781 122.539062 C 226.328125 123.566406 227.328125 124.617188 228.304688 125.695312 C 229.28125 126.773438 230.230469 127.871094 231.152344 128.996094 C 232.074219 130.121094 232.96875 131.265625 233.835938 132.433594 C 234.699219 133.601562 235.535156 134.789062 236.34375 135.996094 C 237.152344 137.207031 237.929688 138.433594 238.675781 139.679688 C 239.421875 140.925781 240.140625 142.191406 240.824219 143.472656 C 241.511719 144.753906 242.164062 146.050781 242.785156 147.367188 C 243.40625 148.679688 243.996094 150.007812 244.550781 151.351562 C 245.109375 152.695312 245.628906 154.050781 246.121094 155.417969 C 246.609375 156.785156 247.066406 158.167969 247.488281 159.558594 C 247.910156 160.949219 248.296875 162.347656 248.648438 163.757812 C 249.003906 165.167969 249.320312 166.585938 249.605469 168.011719 C 249.890625 169.4375 250.136719 170.867188 250.351562 172.308594 C 250.5625 173.746094 250.742188 175.1875 250.882812 176.632812 C 251.027344 178.078125 251.132812 179.527344 251.203125 180.980469 C 251.277344 182.433594 251.3125 183.882812 251.3125 185.339844 C 251.308594 186.792969 251.273438 188.242188 251.199219 189.695312 C 251.128906 191.144531 251.019531 192.59375 250.875 194.039062 C 250.730469 195.484375 250.550781 196.925781 250.335938 198.363281 C 250.121094 199.800781 249.875 201.234375 249.589844 202.65625 C 249.304688 204.082031 248.984375 205.5 248.628906 206.910156 C 248.277344 208.316406 247.886719 209.71875 247.464844 211.109375 C 247.042969 212.496094 246.585938 213.875 246.09375 215.246094 C 245.605469 216.613281 245.082031 217.96875 244.523438 219.308594 C 243.96875 220.652344 243.378906 221.980469 242.757812 223.292969 C 242.132812 224.605469 241.480469 225.902344 240.796875 227.183594 C 240.109375 228.464844 239.394531 229.730469 238.644531 230.976562 C 237.898438 232.222656 237.121094 233.449219 236.3125 234.65625 C 235.503906 235.863281 234.667969 237.050781 233.804688 238.21875 C 232.9375 239.382812 232.042969 240.53125 231.121094 241.652344 C 230.199219 242.777344 229.25 243.875 228.273438 244.953125 C 227.300781 246.027344 226.296875 247.082031 225.269531 248.109375 C 224.242188 249.136719 223.191406 250.136719 222.113281 251.113281 C 221.039062 252.089844 219.9375 253.039062 218.816406 253.960938 C 217.691406 254.882812 216.546875 255.777344 215.378906 256.640625 C 214.210938 257.507812 213.023438 258.34375 211.816406 259.152344 C 210.609375 259.960938 209.382812 260.738281 208.136719 261.484375 C 206.890625 262.230469 205.625 262.949219 204.34375 263.632812 C 203.066406 264.320312 201.765625 264.972656 200.453125 265.59375 C 199.140625 266.214844 197.8125 266.804688 196.472656 267.363281 C 195.128906 267.917969 193.773438 268.441406 192.40625 268.933594 C 191.039062 269.425781 189.660156 269.878906 188.269531 270.304688 C 186.878906 270.726562 185.480469 271.113281 184.070312 271.46875 C 182.660156 271.824219 181.246094 272.140625 179.820312 272.425781 C 178.394531 272.710938 176.964844 272.960938 175.527344 273.175781 C 174.089844 273.390625 172.648438 273.570312 171.203125 273.714844 C 169.757812 273.855469 168.308594 273.964844 166.855469 274.039062 C 165.40625 274.109375 163.953125 274.148438 162.5 274.148438 Z M 162.5 274.148438 " fill-opacity="1" fill-rule="nonzero"/><g clip-path="url(#6586220f9c)"><path fill="#0074e5" d="M 162.5 23.953125 C 159.859375 23.953125 157.21875 24.019531 154.582031 24.148438 C 151.941406 24.277344 149.308594 24.472656 146.679688 24.730469 C 144.054688 24.988281 141.433594 25.3125 138.820312 25.699219 C 136.207031 26.089844 133.605469 26.539062 131.015625 27.054688 C 128.425781 27.570312 125.847656 28.148438 123.285156 28.789062 C 120.726562 29.433594 118.179688 30.136719 115.652344 30.902344 C 113.125 31.667969 110.617188 32.496094 108.132812 33.386719 C 105.644531 34.277344 103.179688 35.226562 100.742188 36.238281 C 98.300781 37.25 95.886719 38.320312 93.5 39.449219 C 91.113281 40.578125 88.753906 41.765625 86.425781 43.011719 C 84.09375 44.253906 81.796875 45.554688 79.53125 46.914062 C 77.265625 48.273438 75.035156 49.683594 72.839844 51.152344 C 70.644531 52.621094 68.484375 54.140625 66.363281 55.714844 C 64.242188 57.285156 62.160156 58.910156 60.117188 60.585938 C 58.078125 62.261719 56.078125 63.988281 54.121094 65.761719 C 52.164062 67.535156 50.25 69.355469 48.382812 71.222656 C 46.515625 73.089844 44.695312 75.003906 42.921875 76.960938 C 41.148438 78.917969 39.421875 80.914062 37.75 82.957031 C 36.074219 85 34.449219 87.082031 32.875 89.203125 C 31.300781 91.324219 29.78125 93.480469 28.3125 95.679688 C 26.847656 97.875 25.433594 100.105469 24.074219 102.371094 C 22.71875 104.636719 21.417969 106.933594 20.171875 109.261719 C 18.925781 111.589844 17.738281 113.949219 16.609375 116.335938 C 15.480469 118.726562 14.410156 121.140625 13.398438 123.578125 C 12.390625 126.019531 11.4375 128.484375 10.550781 130.96875 C 9.660156 133.457031 8.832031 135.964844 8.066406 138.492188 C 7.296875 141.019531 6.59375 143.5625 5.953125 146.125 C 5.308594 148.6875 4.730469 151.261719 4.214844 153.855469 C 3.703125 156.445312 3.25 159.046875 2.863281 161.65625 C 2.476562 164.269531 2.152344 166.890625 1.894531 169.519531 C 1.632812 172.148438 1.441406 174.78125 1.308594 177.417969 C 1.179688 180.058594 1.117188 182.695312 1.117188 185.339844 C 1.117188 187.980469 1.179688 190.617188 1.308594 193.257812 C 1.441406 195.894531 1.632812 198.527344 1.894531 201.15625 C 2.152344 203.785156 2.476562 206.40625 2.863281 209.019531 C 3.25 211.628906 3.703125 214.230469 4.214844 216.824219 C 4.730469 219.414062 5.308594 221.988281 5.953125 224.550781 C 6.59375 227.113281 7.296875 229.65625 8.066406 232.1875 C 8.832031 234.714844 9.660156 237.21875 10.550781 239.707031 C 11.4375 242.195312 12.390625 244.65625 13.398438 247.097656 C 14.410156 249.539062 15.480469 251.953125 16.609375 254.339844 C 17.738281 256.726562 18.925781 259.085938 20.171875 261.414062 C 21.417969 263.742188 22.71875 266.039062 24.074219 268.304688 C 25.433594 270.570312 26.847656 272.800781 28.3125 275 C 29.78125 277.195312 31.300781 279.351562 32.875 281.476562 C 34.449219 283.597656 36.074219 285.675781 37.75 287.71875 C 39.421875 289.761719 41.148438 291.761719 42.921875 293.71875 C 44.695312 295.675781 46.515625 297.585938 48.382812 299.453125 C 50.25 301.320312 52.164062 303.140625 54.121094 304.917969 C 56.078125 306.691406 58.078125 308.414062 60.117188 310.089844 C 62.160156 311.765625 64.242188 313.390625 66.363281 314.964844 C 68.484375 316.535156 70.644531 318.058594 72.839844 319.523438 C 75.035156 320.992188 77.265625 322.402344 79.53125 323.761719 C 81.796875 325.121094 84.09375 326.421875 86.425781 327.667969 C 88.753906 328.910156 91.113281 330.097656 93.5 331.226562 C 95.886719 332.355469 98.300781 333.425781 100.742188 334.4375 C 103.179688 335.449219 105.644531 336.398438 108.132812 337.289062 C 110.617188 338.179688 113.125 339.007812 115.652344 339.773438 C 118.179688 340.539062 120.726562 341.246094 123.285156 341.886719 C 125.847656 342.527344 128.425781 343.105469 131.015625 343.621094 C 133.605469 344.136719 136.207031 344.589844 138.820312 344.976562 C 141.433594 345.363281 144.054688 345.6875 146.679688 345.945312 C 149.308594 346.203125 151.941406 346.398438 154.582031 346.527344 C 157.21875 346.65625 159.859375 346.722656 162.5 346.722656 C 165.140625 346.722656 167.78125 346.65625 170.417969 346.527344 C 173.058594 346.398438 175.691406 346.203125 178.320312 345.945312 C 180.945312 345.6875 183.566406 345.363281 186.179688 344.976562 C 188.792969 344.589844 191.394531 344.136719 193.984375 343.621094 C 196.574219 343.105469 199.152344 342.527344 201.714844 341.886719 C 204.273438 341.246094 206.820312 340.539062 209.347656 339.773438 C 211.875 339.007812 214.382812 338.179688 216.867188 337.289062 C 219.355469 336.398438 221.820312 335.449219 224.257812 334.4375 C 226.699219 333.425781 229.113281 332.355469 231.5 331.226562 C 233.886719 330.097656 236.246094 328.910156 238.574219 327.667969 C 240.90625 326.421875 243.203125 325.121094 245.46875 323.761719 C 247.734375 322.402344 249.964844 320.992188 252.160156 319.523438 C 254.355469 318.058594 256.515625 316.535156 258.636719 314.964844 C 260.757812 313.390625 262.839844 311.765625 264.882812 310.089844 C 266.921875 308.414062 268.921875 306.691406 270.878906 304.917969 C 272.835938 303.140625 274.75 301.320312 276.617188 299.453125 C 278.484375 297.585938 280.304688 295.675781 282.078125 293.71875 C 283.851562 291.761719 285.578125 289.761719 287.25 287.71875 C 288.925781 285.675781 290.550781 283.597656 292.125 281.476562 C 293.699219 279.351562 295.21875 277.195312 296.6875 275 C 298.152344 272.800781 299.566406 270.570312 300.925781 268.304688 C 302.28125 266.039062 303.582031 263.742188 304.828125 261.414062 C 306.074219 259.085938 307.261719 256.726562 308.390625 254.339844 C 309.519531 251.953125 310.589844 249.539062 311.601562 247.097656 C 312.609375 244.65625 313.5625 242.195312 314.449219 239.707031 C 315.339844 237.21875 316.167969 234.714844 316.933594 232.1875 C 317.703125 229.65625 318.40625 227.113281 319.046875 224.550781 C 319.691406 221.988281 320.269531 219.414062 320.785156 216.824219 C 321.296875 214.230469 321.75 211.628906 322.136719 209.019531 C 322.523438 206.40625 322.847656 203.785156 323.105469 201.15625 C 323.367188 198.527344 323.558594 195.894531 323.691406 193.257812 C 323.820312 190.617188 323.882812 187.980469 323.882812 185.339844 C 323.882812 182.695312 323.820312 180.058594 323.691406 177.417969 C 323.558594 174.78125 323.367188 172.148438 323.105469 169.519531 C 322.847656 166.890625 322.523438 164.269531 322.136719 161.65625 C 321.75 159.046875 321.296875 156.445312 320.785156 153.855469 C 320.269531 151.261719 319.691406 148.6875 319.046875 146.125 C 318.40625 143.5625 317.703125 141.019531 316.933594 138.492188 C 316.167969 135.964844 315.339844 133.457031 314.449219 130.96875 C 313.5625 128.484375 312.609375 126.019531 311.601562 123.578125 C 310.589844 121.140625 309.519531 118.726562 308.390625 116.335938 C 307.261719 113.949219 306.074219 111.589844 304.828125 109.261719 C 303.582031 106.933594 302.28125 104.636719 300.925781 102.371094 C 299.566406 100.105469 298.152344 97.875 296.6875 95.679688 C 295.21875 93.480469 293.699219 91.324219 292.125 89.203125 C 290.550781 87.082031 288.925781 85 287.25 82.957031 C 285.578125 80.914062 283.851562 78.917969 282.078125 76.960938 C 280.304688 75.003906 278.484375 73.089844 276.617188 71.222656 C 274.75 69.355469 272.835938 67.535156 270.878906 65.761719 C 268.921875 63.988281 266.921875 62.261719 264.882812 60.585938 C 262.839844 58.910156 260.757812 57.285156 258.636719 55.714844 C 256.515625 54.140625 254.355469 52.621094 252.160156 51.152344 C 249.964844 49.683594 247.734375 48.273438 245.46875 46.914062 C 243.203125 45.554688 240.90625 44.253906 238.574219 43.011719 C 236.246094 41.765625 233.886719 40.578125 231.5 39.449219 C 229.113281 38.320312 226.699219 37.25 224.257812 36.238281 C 221.820312 35.226562 219.355469 34.277344 216.867188 33.386719 C 214.382812 32.496094 211.875 31.667969 209.347656 30.902344 C 206.820312 30.136719 204.273438 29.433594 201.714844 28.789062 C 199.152344 28.148438 196.574219 27.570312 193.984375 27.054688 C 191.394531 26.539062 188.792969 26.089844 186.179688 25.699219 C 183.566406 25.3125 180.945312 24.988281 178.320312 24.730469 C 175.691406 24.472656 173.058594 24.277344 170.417969 24.148438 C 167.78125 24.019531 165.140625 23.953125 162.5 23.953125 Z M 162.5 326.851562 C 160.183594 326.851562 157.871094 326.796875 155.554688 326.679688 C 153.242188 326.566406 150.933594 326.398438 148.628906 326.171875 C 146.324219 325.945312 144.027344 325.660156 141.734375 325.320312 C 139.445312 324.980469 137.164062 324.585938 134.890625 324.132812 C 132.621094 323.679688 130.363281 323.171875 128.113281 322.609375 C 125.867188 322.046875 123.636719 321.429688 121.421875 320.757812 C 119.203125 320.085938 117.007812 319.359375 114.824219 318.578125 C 112.644531 317.800781 110.484375 316.964844 108.34375 316.078125 C 106.207031 315.195312 104.089844 314.253906 101.996094 313.265625 C 99.902344 312.273438 97.832031 311.234375 95.789062 310.140625 C 93.75 309.050781 91.734375 307.910156 89.746094 306.71875 C 87.761719 305.527344 85.804688 304.289062 83.878906 303.003906 C 81.953125 301.714844 80.058594 300.382812 78.199219 299.003906 C 76.339844 297.625 74.515625 296.199219 72.722656 294.730469 C 70.933594 293.261719 69.179688 291.75 67.464844 290.191406 C 65.75 288.636719 64.070312 287.042969 62.433594 285.402344 C 60.796875 283.765625 59.199219 282.089844 57.644531 280.375 C 56.089844 278.65625 54.578125 276.902344 53.109375 275.113281 C 51.640625 273.324219 50.214844 271.5 48.835938 269.636719 C 47.457031 267.777344 46.121094 265.882812 44.835938 263.960938 C 43.546875 262.035156 42.308594 260.078125 41.121094 258.089844 C 39.929688 256.105469 38.789062 254.089844 37.695312 252.046875 C 36.605469 250.003906 35.5625 247.9375 34.574219 245.84375 C 33.582031 243.75 32.644531 241.632812 31.757812 239.492188 C 30.871094 237.351562 30.039062 235.191406 29.257812 233.011719 C 28.476562 230.832031 27.75 228.632812 27.078125 226.417969 C 26.40625 224.203125 25.789062 221.96875 25.226562 219.722656 C 24.664062 217.476562 24.15625 215.21875 23.707031 212.945312 C 23.253906 210.675781 22.859375 208.394531 22.519531 206.101562 C 22.179688 203.8125 21.894531 201.515625 21.667969 199.207031 C 21.441406 196.902344 21.269531 194.59375 21.15625 192.28125 C 21.042969 189.96875 20.984375 187.652344 20.984375 185.339844 C 20.984375 183.023438 21.042969 180.707031 21.15625 178.394531 C 21.269531 176.082031 21.441406 173.773438 21.667969 171.46875 C 21.894531 169.164062 22.179688 166.863281 22.519531 164.574219 C 22.859375 162.28125 23.253906 160 23.707031 157.730469 C 24.15625 155.457031 24.664062 153.199219 25.226562 150.953125 C 25.789062 148.707031 26.40625 146.476562 27.078125 144.257812 C 27.75 142.042969 28.476562 139.84375 29.257812 137.664062 C 30.039062 135.484375 30.871094 133.324219 31.757812 131.183594 C 32.644531 129.042969 33.582031 126.925781 34.574219 124.832031 C 35.5625 122.738281 36.605469 120.671875 37.695312 118.628906 C 38.789062 116.585938 39.929688 114.570312 41.121094 112.585938 C 42.308594 110.597656 43.546875 108.644531 44.835938 106.71875 C 46.121094 104.792969 47.457031 102.898438 48.835938 101.039062 C 50.214844 99.179688 51.640625 97.351562 53.109375 95.5625 C 54.578125 93.773438 56.089844 92.019531 57.644531 90.304688 C 59.199219 88.585938 60.796875 86.910156 62.433594 85.273438 C 64.070312 83.636719 65.75 82.039062 67.464844 80.484375 C 69.179688 78.929688 70.933594 77.414062 72.722656 75.945312 C 74.515625 74.476562 76.339844 73.054688 78.199219 71.671875 C 80.058594 70.292969 81.953125 68.960938 83.878906 67.671875 C 85.804688 66.386719 87.761719 65.148438 89.746094 63.957031 C 91.734375 62.765625 93.75 61.625 95.789062 60.535156 C 97.832031 59.441406 99.902344 58.402344 101.996094 57.410156 C 104.089844 56.421875 106.207031 55.484375 108.34375 54.597656 C 110.484375 53.710938 112.644531 52.875 114.824219 52.097656 C 117.007812 51.316406 119.203125 50.589844 121.421875 49.917969 C 123.636719 49.246094 125.867188 48.628906 128.113281 48.066406 C 130.363281 47.503906 132.621094 46.996094 134.890625 46.542969 C 137.164062 46.089844 139.445312 45.695312 141.734375 45.355469 C 144.027344 45.015625 146.324219 44.734375 148.628906 44.503906 C 150.933594 44.277344 153.242188 44.109375 155.554688 43.996094 C 157.871094 43.882812 160.183594 43.824219 162.5 43.824219 C 164.816406 43.824219 167.128906 43.882812 169.445312 43.996094 C 171.757812 44.109375 174.066406 44.277344 176.371094 44.503906 C 178.675781 44.734375 180.972656 45.015625 183.265625 45.355469 C 185.554688 45.695312 187.835938 46.089844 190.109375 46.542969 C 192.378906 46.996094 194.636719 47.503906 196.886719 48.066406 C 199.132812 48.628906 201.363281 49.246094 203.578125 49.917969 C 205.796875 50.589844 207.992188 51.316406 210.175781 52.097656 C 212.355469 52.875 214.515625 53.710938 216.65625 54.597656 C 218.792969 55.484375 220.910156 56.421875 223.003906 57.410156 C 225.097656 58.402344 227.167969 59.441406 229.210938 60.535156 C 231.25 61.625 233.265625 62.765625 235.253906 63.957031 C 237.238281 65.148438 239.195312 66.386719 241.121094 67.671875 C 243.046875 68.960938 244.941406 70.292969 246.800781 71.671875 C 248.660156 73.054688 250.484375 74.476562 252.277344 75.945312 C 254.066406 77.414062 255.820312 78.929688 257.535156 80.484375 C 259.25 82.039062 260.929688 83.636719 262.566406 85.273438 C 264.203125 86.910156 265.800781 88.585938 267.355469 90.304688 C 268.910156 92.019531 270.421875 93.773438 271.890625 95.5625 C 273.359375 97.351562 274.785156 99.179688 276.164062 101.039062 C 277.542969 102.898438 278.878906 104.792969 280.164062 106.71875 C 281.449219 108.644531 282.691406 110.597656 283.878906 112.585938 C 285.070312 114.570312 286.210938 116.585938 287.304688 118.628906 C 288.394531 120.671875 289.4375 122.738281 290.425781 124.832031 C 291.417969 126.925781 292.355469 129.042969 293.242188 131.183594 C 294.128906 133.324219 294.960938 135.484375 295.742188 137.664062 C 296.523438 139.84375 297.25 142.042969 297.921875 144.257812 C 298.59375 146.476562 299.210938 148.707031 299.773438 150.953125 C 300.335938 153.199219 300.84375 155.457031 301.292969 157.730469 C 301.746094 160 302.140625 162.28125 302.480469 164.574219 C 302.820312 166.863281 303.105469 169.164062 303.332031 171.46875 C 303.558594 173.773438 303.730469 176.082031 303.84375 178.394531 C 303.957031 180.707031 304.015625 183.023438 304.015625 185.339844 C 304.011719 187.652344 303.953125 189.96875 303.835938 192.28125 C 303.71875 194.59375 303.546875 196.898438 303.320312 199.203125 C 303.089844 201.507812 302.804688 203.804688 302.460938 206.09375 C 302.121094 208.386719 301.722656 210.664062 301.269531 212.9375 C 300.816406 215.207031 300.308594 217.464844 299.742188 219.710938 C 299.179688 221.957031 298.558594 224.183594 297.886719 226.402344 C 297.210938 228.617188 296.484375 230.8125 295.703125 232.992188 C 294.921875 235.171875 294.089844 237.332031 293.203125 239.46875 C 292.3125 241.609375 291.375 243.722656 290.382812 245.816406 C 289.394531 247.910156 288.351562 249.976562 287.257812 252.015625 C 286.167969 254.058594 285.027344 256.074219 283.835938 258.058594 C 282.644531 260.042969 281.40625 262 280.117188 263.921875 C 278.832031 265.847656 277.5 267.738281 276.117188 269.597656 C 274.738281 271.457031 273.316406 273.285156 271.84375 275.074219 C 270.375 276.863281 268.863281 278.613281 267.308594 280.332031 C 265.753906 282.046875 264.160156 283.722656 262.519531 285.359375 C 260.882812 286.996094 259.207031 288.59375 257.492188 290.148438 C 255.777344 291.703125 254.023438 293.214844 252.234375 294.683594 C 250.445312 296.152344 248.621094 297.578125 246.761719 298.957031 C 244.902344 300.335938 243.011719 301.667969 241.085938 302.957031 C 239.160156 304.242188 237.207031 305.480469 235.21875 306.671875 C 233.234375 307.863281 231.222656 309.003906 229.179688 310.097656 C 227.136719 311.191406 225.070312 312.230469 222.976562 313.222656 C 220.886719 314.214844 218.769531 315.152344 216.632812 316.039062 C 214.492188 316.925781 212.332031 317.761719 210.15625 318.542969 C 207.976562 319.324219 205.777344 320.050781 203.5625 320.722656 C 201.347656 321.398438 199.117188 322.015625 196.871094 322.582031 C 194.625 323.144531 192.367188 323.65625 190.097656 324.109375 C 187.828125 324.5625 185.546875 324.960938 183.257812 325.300781 C 180.96875 325.640625 178.671875 325.929688 176.367188 326.15625 C 174.0625 326.386719 171.753906 326.558594 169.441406 326.675781 C 167.128906 326.789062 164.816406 326.847656 162.5 326.851562 Z M 162.5 326.851562 " fill-opacity="1" fill-rule="nonzero"/></g><g clip-path="url(#36fce43b86)"><path stroke-linecap="butt" transform="matrix(-0.731083, 1.438752, -1.438752, -0.731083, 259.631343, 31.64134)" fill="none" stroke-linejoin="miter" d="M 0.000213481 10.500591 L 215.171603 10.500898 " stroke="#ffffff" stroke-width="21" stroke-opacity="1" stroke-miterlimit="4"/></g><g clip-path="url(#c0cb4b2a5f)"><g clip-path="url(#f9c34fc5b6)"><g transform="matrix(1, 0, 0, 1, 148, 171)"><g clip-path="url(#92a43b319c)"><g clip-path="url(#c58d49f9e6)"><g clip-path="url(#f6496dd363)"><path fill="#0074e5" d="M 0.734375 0.574219 L 28.265625 0.574219 L 28.265625 28.101562 L 0.734375 28.101562 Z M 0.734375 0.574219 " fill-opacity="1" fill-rule="nonzero"/></g></g></g></g></g></g></g></g></svg>